<?xml version="1.0" encoding="iso-8859-1"?>
<!-- Uploaded to: SVG Repo, www.svgrepo.com, Generator: SVG Repo Mixer Tools -->
<!DOCTYPE svg PUBLIC "-//W3C//DTD SVG 1.1//EN" "http://www.w3.org/Graphics/SVG/1.1/DTD/svg11.dtd">
<svg fill="#000000" version="1.1" id="Capa_1" xmlns="http://www.w3.org/2000/svg" xmlns:xlink="http://www.w3.org/1999/xlink" 
	 width="800px" height="800px" viewBox="0 0 62.201 62.201"
	 xml:space="preserve">
<g>
	<g>
		<path d="M60.7,30.788c-0.352,0-0.705-0.122-0.988-0.372L31.1,5.335L2.489,30.416c-0.623,0.546-1.571,0.483-2.117-0.139
			c-0.546-0.623-0.484-1.571,0.139-2.117l29.6-25.948c0.565-0.496,1.412-0.496,1.978,0L61.69,28.16
			c0.623,0.546,0.684,1.494,0.139,2.117C61.532,30.615,61.116,30.788,60.7,30.788z"/>
	</g>
	<g>
		<path d="M53.44,60.361H8.76c-0.829,0-1.5-0.672-1.5-1.5V30.608c0-0.433,0.187-0.844,0.511-1.128l22.34-19.587
			c0.565-0.495,1.412-0.495,1.978,0L54.43,29.48c0.324,0.284,0.51,0.695,0.51,1.128v28.253C54.94,59.689,54.268,60.361,53.44,60.361
			z M10.26,57.361h41.68V31.287L31.1,13.017L10.26,31.287V57.361z"/>
	</g>
	<g>
		<path d="M26.608,36.154h6.199l4.527-3.036c-0.881-2.601-3.34-4.479-6.234-4.479c-3.632,0-6.587,2.955-6.587,6.586
			c0,1.981,0.882,3.76,2.271,4.968l1.759-1.181C27.571,38.354,26.854,37.344,26.608,36.154z M30.066,34.267h-2.182
			c-0.01-0.057-0.034-0.106-0.034-0.167c0-0.385,0.206-0.708,0.501-0.91l1.673,0.531C30.067,33.84,30.1,33.965,30.1,34.1
			C30.1,34.159,30.076,34.21,30.066,34.267z M34.317,34.267h-2.182C32.124,34.21,32.1,34.159,32.1,34.1
			c0-0.129,0.033-0.249,0.074-0.363l1.688-0.538c0.287,0.204,0.488,0.522,0.488,0.901C34.35,34.159,34.327,34.21,34.317,34.267z
			 M31.1,30.639c1.293,0,2.459,0.543,3.293,1.407h-6.587C28.642,31.182,29.807,30.639,31.1,30.639z"/>
	</g>
	<path d="M31.1,24.921c-8.076,0-14.646,6.57-14.646,14.646c0,4.676,2.265,9.109,6.058,11.86c2.512,1.821,5.482,2.784,8.588,2.784
		c3.105,0,6.076-0.963,8.588-2.784c3.793-2.751,6.059-7.186,6.059-11.86C45.747,31.491,39.176,24.921,31.1,24.921z M40.102,48.412
		v-6.051c0-0.914-0.744-1.657-1.658-1.657h-3.695c1.402-0.938,2.418-2.401,2.781-4.104L22.099,46.945v1.468
		c-2.3-2.348-3.645-5.52-3.645-8.846c0-6.975,5.673-12.646,12.646-12.646c6.973,0,12.646,5.672,12.646,12.646
		C43.747,42.894,42.401,46.065,40.102,48.412z"/>
	<g>
		<path d="M19.537,47.808c-0.323,0-0.64-0.155-0.833-0.443c-0.307-0.459-0.183-1.08,0.276-1.388L41.659,30.82
			c0.459-0.309,1.08-0.184,1.387,0.274c0.309,0.459,0.184,1.079-0.275,1.387L20.091,47.639
			C19.92,47.753,19.727,47.808,19.537,47.808z"/>
	</g>
</g>
</svg>